<svg version="1.1" xmlns="http://www.w3.org/2000/svg" viewBox="0 0 543.2390826506372 362.7121126579175" width="1086.4781653012744" height="725.424225315835">
  <!-- svg-source:excalidraw -->
  
  <defs>
    <style class="style-fonts">
      @font-face {
        font-family: "Virgil";
        src: url("https://excalidraw.com/Virgil.woff2");
      }
      @font-face {
        font-family: "Cascadia";
        src: url("https://excalidraw.com/Cascadia.woff2");
      }
    </style>
  </defs>
  <rect x="0" y="0" width="543.2390826506372" height="362.7121126579175" fill="#ffffff"></rect><g stroke-linecap="round" transform="translate(202.5765511038088 10) rotate(0 43 38.5)"><path d="M28.56 2.55 C35.39 -0.39, 44.55 -0.35, 51.96 0.94 C59.38 2.23, 67.45 5.37, 73.06 10.3 C78.67 15.22, 83.84 23.74, 85.63 30.49 C87.41 37.24, 86.58 44.37, 83.78 50.8 C80.97 57.23, 74.97 64.66, 68.78 69.09 C62.59 73.51, 54.38 76.74, 46.63 77.36 C38.87 77.97, 29.19 76.04, 22.23 72.78 C15.26 69.51, 8.65 64.09, 4.84 57.78 C1.03 51.48, -1.22 42.12, -0.64 34.94 C-0.07 27.76, 3.23 20.24, 8.26 14.71 C13.3 9.18, 25.44 3.99, 29.58 1.78 C33.72 -0.44, 32.67 0.91, 33.11 1.43 M62.5 4.76 C69.28 7.15, 76.05 12.5, 80.21 18.56 C84.36 24.62, 87.8 33.95, 87.42 41.12 C87.03 48.29, 82.72 56.33, 77.91 61.58 C73.1 66.83, 65.62 70.38, 58.55 72.62 C51.49 74.86, 42.88 76.02, 35.52 75.01 C28.15 74, 19.85 71.08, 14.34 66.56 C8.84 62.03, 4.36 54.47, 2.48 47.87 C0.6 41.27, 0.87 33.62, 3.07 26.94 C5.27 20.26, 9.81 12.31, 15.67 7.78 C21.54 3.25, 30.6 0.5, 38.26 -0.23 C45.92 -0.96, 57.78 2.7, 61.62 3.4 C65.47 4.1, 61.38 3.5, 61.33 3.96" stroke="#000000" stroke-width="1" fill="none"></path></g><g transform="translate(220.5765511038088 87.5) rotate(0 26.5 12.5)"><text x="0" y="18" font-family="Virgil, Segoe UI Emoji" font-size="20px" fill="#000000" text-anchor="start" style="white-space: pre;" direction="ltr">initial</text></g><g stroke-linecap="round" transform="translate(193.87843697165124 250.21211265791737) rotate(0 43 38.5)"><path d="M43.33 -0.2 C50.87 -0.78, 60.75 2.61, 67.11 6.33 C73.46 10.05, 78.33 15.59, 81.47 22.12 C84.61 28.65, 87.13 38.35, 85.94 45.51 C84.75 52.67, 79.52 59.98, 74.32 65.08 C69.12 70.18, 62.06 74.49, 54.75 76.09 C47.43 77.7, 38.01 76.82, 30.43 74.7 C22.85 72.58, 14.14 68.64, 9.28 63.37 C4.41 58.09, 2.12 49.9, 1.24 43.05 C0.36 36.2, 0.91 28.55, 4 22.26 C7.09 15.97, 12.34 8.89, 19.77 5.29 C27.19 1.69, 42.73 1.3, 48.55 0.68 C54.37 0.06, 54.78 0.96, 54.69 1.57 M44.72 0.11 C52.1 -0.56, 59.3 1.14, 65.69 4.86 C72.08 8.57, 79.96 15.9, 83.05 22.4 C86.15 28.89, 85.59 36.71, 84.23 43.85 C82.87 50.98, 79.65 60.16, 74.9 65.22 C70.15 70.27, 63.1 72.44, 55.75 74.2 C48.4 75.96, 38.14 77.64, 30.8 75.77 C23.46 73.91, 16.73 68.36, 11.73 63.01 C6.73 57.66, 2.05 50.24, 0.79 43.68 C-0.47 37.12, 1.08 30.18, 4.16 23.67 C7.25 17.17, 12.54 8.68, 19.3 4.64 C26.05 0.6, 40.63 0.11, 44.68 -0.55 C48.73 -1.2, 44.05 0.08, 43.59 0.71" stroke="#000000" stroke-width="1" fill="none"></path></g><g transform="translate(211.87843697165124 327.7121126579175) rotate(0 39 12.5)"><text x="0" y="18" font-family="Virgil, Segoe UI Emoji" font-size="20px" fill="#000000" text-anchor="start" style="white-space: pre;" direction="ltr">counting</text></g><g stroke-linecap="round"><g transform="translate(253.3901404531644 116.38176878720435) rotate(0 3.634278691645818 64.01122665723977)"><path d="M1.09 -1.11 C2.26 20.12, 6.27 106.19, 7.07 127.61 M0.2 0.93 C1.23 22.33, 4.92 107.85, 6.27 129.13" stroke="#000000" stroke-width="1" fill="none"></path></g><g transform="translate(253.3901404531644 116.38176878720435) rotate(0 3.634278691645818 64.01122665723977)"><path d="M-7.28 101.96 C-1.88 108.25, 1.31 117.05, 4.29 131 M-5.03 101.61 C-2.85 108.53, 1.33 114.01, 5.33 128.25" stroke="#000000" stroke-width="1" fill="none"></path></g><g transform="translate(253.3901404531644 116.38176878720435) rotate(0 3.634278691645818 64.01122665723977)"><path d="M13.21 100.9 C12.39 107.69, 9.36 116.82, 4.29 131 M15.47 100.55 C12.69 107.71, 11.9 113.44, 5.33 128.25" stroke="#000000" stroke-width="1" fill="none"></path></g></g><mask></mask><g stroke-linecap="round"><g transform="translate(203.6212072330959 321.73759464048794) rotate(0 -55.01767441811728 -24.027271954546677)"><path d="M-0.75 0.6 C-17.66 1.97, -85.94 17.49, -101.83 8.18 C-117.71 -1.14, -111.41 -46.24, -96.07 -55.26 C-80.72 -64.29, -24.24 -47.47, -9.75 -45.98 M1.05 -0.13 C-15.91 1.39, -86.56 18.92, -102.33 9.38 C-118.1 -0.15, -108.94 -47.78, -93.55 -57.36 C-78.17 -66.93, -24.41 -50, -10 -48.04" stroke="#000000" stroke-width="1" fill="none"></path></g><g transform="translate(203.6212072330959 321.73759464048794) rotate(0 -55.01767441811728 -24.027271954546677)"><path d="M-38.72 -42.6 C-32.79 -46.12, -22.96 -47.57, -8.41 -48.56 M-38.82 -43.7 C-29.7 -45.57, -18.29 -46.71, -9.27 -47.79" stroke="#000000" stroke-width="1" fill="none"></path></g><g transform="translate(203.6212072330959 321.73759464048794) rotate(0 -55.01767441811728 -24.027271954546677)"><path d="M-34.35 -62.65 C-29.59 -60.81, -20.94 -56.88, -8.41 -48.56 M-34.45 -63.75 C-26.84 -58.57, -16.96 -52.66, -9.27 -47.79" stroke="#000000" stroke-width="1" fill="none"></path></g></g><mask></mask><g transform="translate(262.63084688450306 166.95534387071285) rotate(0 29 12.5)"><text x="0" y="18" font-family="Virgil, Segoe UI Emoji" font-size="20px" fill="#000000" text-anchor="start" style="white-space: pre;" direction="ltr">Start</text></g><g transform="translate(10 280.4673934349719) rotate(0 43 25)"><text x="0" y="18" font-family="Virgil, Segoe UI Emoji" font-size="20px" fill="#000000" text-anchor="start" style="white-space: pre;" direction="ltr">Process </text><text x="0" y="43" font-family="Virgil, Segoe UI Emoji" font-size="20px" fill="#000000" text-anchor="start" style="white-space: pre;" direction="ltr">Vote</text></g><g stroke-linecap="round" transform="translate(443.2390826506373 155.04212089685728) rotate(0 42.99999999999997 38.5)"><path d="M59.38 2.02 C66.67 3.88, 74.57 9.29, 78.85 14.97 C83.13 20.65, 84.74 29.02, 85.03 36.09 C85.33 43.16, 84.18 51.16, 80.63 57.39 C77.08 63.61, 70.58 70.12, 63.72 73.46 C56.85 76.8, 47.31 78.3, 39.45 77.41 C31.59 76.51, 22.6 72.27, 16.55 68.07 C10.51 63.88, 5.79 58.66, 3.17 52.25 C0.55 45.85, -0.86 36.54, 0.84 29.62 C2.53 22.7, 7.67 15.56, 13.32 10.71 C18.96 5.85, 26.57 1.69, 34.71 0.49 C42.84 -0.71, 57.13 2.53, 62.13 3.5 C67.13 4.46, 65.24 5.81, 64.73 6.31 M32.4 2.58 C39.1 0.46, 46.87 1.12, 54.16 2.78 C61.45 4.44, 70.73 7.29, 76.16 12.55 C81.59 17.81, 85.75 27.32, 86.75 34.35 C87.76 41.37, 85.44 48.66, 82.19 54.69 C78.94 60.72, 73.86 66.84, 67.24 70.51 C60.63 74.18, 50.31 76.6, 42.48 76.7 C34.66 76.8, 26.68 74.64, 20.28 71.12 C13.89 67.61, 7.36 62.01, 4.11 55.61 C0.87 49.21, -0.11 39.75, 0.81 32.71 C1.73 25.68, 4.68 18.81, 9.63 13.41 C14.58 8.01, 26.83 2.26, 30.51 0.31 C34.2 -1.63, 31.63 1.06, 31.75 1.74" stroke="#000000" stroke-width="1" fill="none"></path></g><g transform="translate(461.2390826506372 232.54212089685728) rotate(0 36 12.500000000000028)"><text x="0" y="18" font-family="Virgil, Segoe UI Emoji" font-size="20px" fill="#000000" text-anchor="start" style="white-space: pre;" direction="ltr">finished</text></g><g stroke-linecap="round"><g transform="translate(284.29671024688474 261.59767421202605) rotate(0 77.99097521410616 -25.85814103185325)"><path d="M-0.7 0.07 C25.04 -8.58, 128.34 -43.21, 154.49 -51.79 M1.13 -0.94 C27.23 -9.44, 130.9 -42.3, 156.68 -50.48" stroke="#000000" stroke-width="1" fill="none"></path></g><g transform="translate(284.29671024688474 261.59767421202605) rotate(0 77.99097521410616 -25.85814103185325)"><path d="M133.03 -33.83 C139.38 -36.43, 147.32 -42.15, 158.31 -52.22 M133.09 -31.24 C140.98 -37.98, 150.36 -44.83, 155.95 -49.73" stroke="#000000" stroke-width="1" fill="none"></path></g><g transform="translate(284.29671024688474 261.59767421202605) rotate(0 77.99097521410616 -25.85814103185325)"><path d="M126.83 -53.39 C135.09 -50, 144.91 -49.76, 158.31 -52.22 M126.89 -50.8 C136.97 -50.33, 148.63 -50.03, 155.95 -49.73" stroke="#000000" stroke-width="1" fill="none"></path></g></g><mask></mask><g stroke-linecap="round"><g transform="translate(292.62297132041436 69.37132247093348) rotate(0 77.13869471810759 50.05720117950813)"><path d="M-0.78 -0.2 C25.25 16.52, 129.24 84.7, 155.06 101.47 M1.01 -1.35 C27.08 15.52, 129.26 82.46, 154.66 99.59" stroke="#000000" stroke-width="1" fill="none"></path></g><g transform="translate(292.62297132041436 69.37132247093348) rotate(0 77.13869471810759 50.05720117950813)"><path d="M125.16 94.32 C132.32 94.38, 136.56 97.34, 154.28 98.64 M125.56 92.75 C134.95 94.35, 141.59 96.4, 155.27 99.93" stroke="#000000" stroke-width="1" fill="none"></path></g><g transform="translate(292.62297132041436 69.37132247093348) rotate(0 77.13869471810759 50.05720117950813)"><path d="M136.5 77.22 C141.5 80.71, 143.41 87.18, 154.28 98.64 M136.9 75.65 C142.8 82.26, 146.13 89.32, 155.27 99.93" stroke="#000000" stroke-width="1" fill="none"></path></g></g><mask></mask></svg>